<mxfile host="65bd71144e">
    <diagram id="rZMq07sny35mMnmNYbOe" name="Page-1">
        <mxGraphModel dx="1889" dy="933" grid="1" gridSize="10" guides="1" tooltips="1" connect="1" arrows="1" fold="1" page="1" pageScale="1" pageWidth="850" pageHeight="1100" math="0" shadow="0">
            <root>
                <mxCell id="0"/>
                <mxCell id="1" parent="0"/>
                <mxCell id="3" value="Client View" style="shape=umlLifeline;perimeter=lifelinePerimeter;whiteSpace=wrap;html=1;container=1;collapsible=0;recursiveResize=0;outlineConnect=0;" vertex="1" parent="1">
                    <mxGeometry x="200" y="270" width="100" height="210" as="geometry"/>
                </mxCell>
                <mxCell id="4" value="" style="html=1;points=[];perimeter=orthogonalPerimeter;" vertex="1" parent="3">
                    <mxGeometry x="44.89" y="70" width="10" height="100" as="geometry"/>
                </mxCell>
                <mxCell id="5" value="Client Connection" style="shape=umlLifeline;perimeter=lifelinePerimeter;whiteSpace=wrap;html=1;container=1;collapsible=0;recursiveResize=0;outlineConnect=0;size=40;" vertex="1" parent="1">
                    <mxGeometry x="380" y="270" width="100" height="210" as="geometry"/>
                </mxCell>
                <mxCell id="6" value="" style="html=1;points=[];perimeter=orthogonalPerimeter;" vertex="1" parent="5">
                    <mxGeometry x="44.89" y="80.15999999999997" width="10" height="80" as="geometry"/>
                </mxCell>
                <mxCell id="7" value="Game Server&lt;br&gt;Connection" style="shape=umlLifeline;perimeter=lifelinePerimeter;whiteSpace=wrap;html=1;container=1;collapsible=0;recursiveResize=0;outlineConnect=0;" vertex="1" parent="1">
                    <mxGeometry x="910" y="270" width="100" height="210" as="geometry"/>
                </mxCell>
                <mxCell id="8" value="" style="html=1;points=[];perimeter=orthogonalPerimeter;" vertex="1" parent="7">
                    <mxGeometry x="44.89" y="90.16" width="10" height="69.84" as="geometry"/>
                </mxCell>
                <mxCell id="9" value="Game Server" style="shape=umlLifeline;perimeter=lifelinePerimeter;whiteSpace=wrap;html=1;container=1;collapsible=0;recursiveResize=0;outlineConnect=0;" vertex="1" parent="1">
                    <mxGeometry x="1090" y="270" width="100" height="210" as="geometry"/>
                </mxCell>
                <mxCell id="10" value="" style="html=1;points=[];perimeter=orthogonalPerimeter;" vertex="1" parent="9">
                    <mxGeometry x="44.89" y="110" width="10" height="20" as="geometry"/>
                </mxCell>
                <mxCell id="11" value="cloudChoice" style="html=1;verticalAlign=bottom;endArrow=block;entryX=0.041;entryY=-0.029;entryDx=0;entryDy=0;entryPerimeter=0;" edge="1" parent="1" source="6" target="8">
                    <mxGeometry width="80" relative="1" as="geometry">
                        <mxPoint x="799.89" y="358.15999999999997" as="sourcePoint"/>
                        <mxPoint x="679.89" y="320.15999999999997" as="targetPoint"/>
                    </mxGeometry>
                </mxCell>
                <mxCell id="12" value="cloudChoice" style="html=1;verticalAlign=bottom;endArrow=open;dashed=1;endSize=8;entryX=0.906;entryY=0.867;entryDx=0;entryDy=0;entryPerimeter=0;" edge="1" parent="1" target="6">
                    <mxGeometry relative="1" as="geometry">
                        <mxPoint x="950" y="420" as="sourcePoint"/>
                        <mxPoint x="509.89" y="380.15999999999997" as="targetPoint"/>
                    </mxGeometry>
                </mxCell>
                <mxCell id="13" value="send(cloudChoice)" style="html=1;verticalAlign=bottom;endArrow=block;entryX=0.041;entryY=-0.002;entryDx=0;entryDy=0;entryPerimeter=0;" edge="1" parent="1" source="4" target="6">
                    <mxGeometry width="80" relative="1" as="geometry">
                        <mxPoint x="309.89" y="350" as="sourcePoint"/>
                        <mxPoint x="384.89" y="360.15999999999997" as="targetPoint"/>
                    </mxGeometry>
                </mxCell>
                <mxCell id="14" value="cloudChoice" style="html=1;verticalAlign=bottom;endArrow=block;entryX=0.084;entryY=0.056;entryDx=0;entryDy=0;entryPerimeter=0;" edge="1" parent="1" source="8" target="10">
                    <mxGeometry width="80" relative="1" as="geometry">
                        <mxPoint x="1484.8900000000003" y="380.15999999999997" as="sourcePoint"/>
                        <mxPoint x="1324.89" y="369.15999999999997" as="targetPoint"/>
                    </mxGeometry>
                </mxCell>
                <mxCell id="15" value="send(cloudChoice)" style="html=1;verticalAlign=bottom;endArrow=open;dashed=1;endSize=8;exitX=1.022;exitY=0.995;exitDx=0;exitDy=0;exitPerimeter=0;" edge="1" parent="1" source="10" target="8">
                    <mxGeometry relative="1" as="geometry">
                        <mxPoint x="1344.89" y="410.15999999999997" as="sourcePoint"/>
                        <mxPoint x="1454.89" y="410.15999999999997" as="targetPoint"/>
                    </mxGeometry>
                </mxCell>
                <mxCell id="16" value="cloudChoice" style="html=1;verticalAlign=bottom;endArrow=open;dashed=1;endSize=8;exitX=0.041;exitY=1.002;exitDx=0;exitDy=0;exitPerimeter=0;" edge="1" parent="1" source="6" target="4">
                    <mxGeometry relative="1" as="geometry">
                        <mxPoint x="474.89" y="430.15999999999997" as="sourcePoint"/>
                        <mxPoint x="309.89" y="430.32000000000005" as="targetPoint"/>
                    </mxGeometry>
                </mxCell>
                <mxCell id="17" value="Client2 View" style="shape=umlLifeline;perimeter=lifelinePerimeter;whiteSpace=wrap;html=1;container=1;collapsible=0;recursiveResize=0;outlineConnect=0;" vertex="1" parent="1">
                    <mxGeometry x="560" y="270" width="100" height="210" as="geometry"/>
                </mxCell>
                <mxCell id="18" value="" style="html=1;points=[];perimeter=orthogonalPerimeter;" vertex="1" parent="17">
                    <mxGeometry x="45" y="170" width="10" height="10" as="geometry"/>
                </mxCell>
                <mxCell id="19" value="Client2 Connection" style="shape=umlLifeline;perimeter=lifelinePerimeter;whiteSpace=wrap;html=1;container=1;collapsible=0;recursiveResize=0;outlineConnect=0;" vertex="1" parent="1">
                    <mxGeometry x="730" y="270" width="100" height="210" as="geometry"/>
                </mxCell>
                <mxCell id="20" value="" style="html=1;points=[];perimeter=orthogonalPerimeter;" vertex="1" parent="19">
                    <mxGeometry x="45" y="160" width="10" height="10" as="geometry"/>
                </mxCell>
                <mxCell id="21" value="cloudChoice" style="html=1;verticalAlign=bottom;endArrow=open;dashed=1;endSize=8;entryX=0.848;entryY=0.005;entryDx=0;entryDy=0;entryPerimeter=0;" edge="1" parent="1" source="8" target="20">
                    <mxGeometry relative="1" as="geometry">
                        <mxPoint x="960" y="430" as="sourcePoint"/>
                        <mxPoint x="880" y="420" as="targetPoint"/>
                    </mxGeometry>
                </mxCell>
                <mxCell id="22" value="cloudChoice" style="html=1;verticalAlign=bottom;endArrow=open;dashed=1;endSize=8;" edge="1" parent="1" source="20" target="18">
                    <mxGeometry relative="1" as="geometry">
                        <mxPoint x="780" y="440" as="sourcePoint"/>
                        <mxPoint x="700" y="440" as="targetPoint"/>
                    </mxGeometry>
                </mxCell>
            </root>
        </mxGraphModel>
    </diagram>
</mxfile>